inDegrees=yes
name=ik_lifting_orientations
DataType=double
version=3
OpenSimVersion=4.5-2024-01-10-34fd6af
endheader
time	pelvis_tilt	pelvis_list	pelvis_rotation	pelvis_tx	pelvis_ty	pelvis_tz	hip_flexion_r	hip_adduction_r	hip_rotation_r	knee_angle_r	knee_angle_r_beta	ankle_angle_r	subtalar_angle_r	mtp_angle_r	hip_flexion_l	hip_adduction_l	hip_rotation_l	knee_angle_l	knee_angle_l_beta	ankle_angle_l	subtalar_angle_l	mtp_angle_l	lumbar_extension	lumbar_bending	lumbar_rotation	arm_flex_r	arm_add_r	arm_rot_r	elbow_flex_r	pro_sup_r	wrist_flex_r	wrist_dev_r	arm_flex_l	arm_add_l	arm_rot_l	elbow_flex_l	pro_sup_l	wrist_flex_l	wrist_dev_l
2.34	-4.698034451092106	-9.48099238566398	-10.47613601854117	0	0.9399999998497812	0	43.59486184496883	-10.02764219821918	0	59.61011500615275	1.040392774349845	-5.004460302928662	0	0	43.59486184496883	-10.02764219821918	0	59.61011500615275	1.040392774349845	-5.004460302928662	0	0	15.98301942696021	20.99457404915803	-14.85176760227768	135.9946309633343	19.94835262515817	-49.28562254602443	12.99762057838091	45.06827707000336	0	0	0	-11.79101330960806	0	75.99285413558385	45.06827707000336	0	0
2.35	-4.694427761175438	-9.477092372795971	-10.45043584473222	0	0.9399999998497812	0	43.60013075516139	-10.02738820140619	0	59.61155577159964	1.040417920450643	-5.004410934349159	0	0	43.60013075516139	-10.02738820140619	0	59.61155577159964	1.040417920450643	-5.004410934349159	0	0	14.57634202779607	20.72681474784925	-14.16279015587138	134.9584669634619	20.64881444647285	-49.15394359916033	14.16024365432086	45.06774506396597	0	0	0	-11.7982861773914	0	75.98913216307356	45.06774506396597	0	0
2.36	-4.695800958106385	-9.477487707511152	-10.46947211409038	0	0.9399999998497812	0	43.60086992050874	-10.02733759954238	0	59.61171648626915	1.040420725450782	-5.004400300842539	0	0	43.60086992050874	-10.02733759954238	0	59.61171648626915	1.040420725450782	-5.004400300842539	0	0	13.98559247194242	19.82867568650221	-13.91000568650002	135.713600773033	20.07950887852741	-50.3692419281823	13.94807139743563	45.06764608232402	0	0	0	-11.79915110012077	0	75.98861006283948	45.06764608232402	0	0
2.37	-3.55943706324545	-9.464775895095164	-10.63505082879626	0	0.9399999998497812	0	43.60157761514031	-10.02728939687812	0	59.6118708486909	1.040423419583283	-5.004390184356546	0	0	43.60157761514031	-10.02728939687812	0	59.6118708486909	1.040423419583283	-5.004390184356546	0	0	12.74355704181538	19.70022392935271	-13.48877193127852	135.3700672986694	20.2003059208117	-50.14421512961981	12.95933178259156	45.0675516957502	0	0	0	-11.79998122188611	0	75.98811019085117	45.0675516957502	0	0
2.38	-3.55771499820033	-9.473944330700538	-10.63909861451929	0	0.9399999998497812	0	43.6270607531974	-10.02609114634956	0	59.61887903908579	1.04054573558028	-5.004159369781473	0	0	43.6270607531974	-10.02609114634956	0	59.61887903908579	1.04054573558028	-5.004159369781473	0	0	14.11190942547164	20.35097660750261	-14.14300296462449	130.8007596192722	22.69559524277837	-48.73621750471147	15.08026363853947	45.06502543446432	0	0	0	-11.83539279859037	0	75.970108754625	45.06502543446432	0	0
2.39	-3.554011808747966	-9.463445441148535	-10.64025202699822	0	0.9399999998497812	0	43.64360249381565	-10.02532466159816	0	59.62339719025706	1.040624592194322	-5.004012601860106	0	0	43.64360249381565	-10.02532466159816	0	59.62339719025706	1.040624592194322	-5.004012601860106	0	0	14.10999730205977	20.34264889742003	-14.14520407393279	127.2904676844217	24.33998410198716	-47.26892394078545	18.66459364239532	45.06340263643999	0	0	0	-11.85844054216281	0	75.9584235540604	45.06340263643999	0	0
2.4	-3.545525171725366	-9.459287534998628	-10.63500126694819	0	0.9399999998497812	0	43.6593989288985	-10.02461022728472	0	59.62773693514929	1.040700335031388	-5.003876793587274	0	0	43.6593989288985	-10.02461022728472	0	59.62773693514929	1.040700335031388	-5.003876793587274	0	0	12.1794912264132	19.17600141257882	-13.24866754548704	125.1300060138357	24.98191080435371	-46.46566598314892	22.78771636323644	45.06188139504307	0	0	0	-11.88062747716355	0	75.94726479043049	45.06188139504307	0	0
2.41	-4.189459070357676	-8.753063850262924	-11.1454354222866	0	0.9399999998497812	0	43.68360962847123	-10.02355782554069	0	59.63446644203009	1.040817787083493	-5.003679079488646	0	0	43.68360962847123	-10.02355782554069	0	59.63446644203009	1.040817787083493	-5.003679079488646	0	0	14.09964065214386	18.99483605237431	-13.35065533387704	120.1639969570817	27.13317625618245	-44.8149791199106	25.08265474489367	45.05961960178188	0	0	0	-11.91508154710663	0	75.93016197908716	45.05961960178188	0	0
2.42	-4.190050417501463	-8.751675473752933	-11.14437900212516	0	0.9399999998497812	0	43.69449136599467	-10.02308746150067	0	59.63746085383875	1.040870049428715	-5.003590985939035	0	0	43.69449136599467	-10.02308746150067	0	59.63746085383875	1.040870049428715	-5.003590985939035	0	0	14.09117528355875	19.36535375844625	-13.31938713696423	117.2537408785091	27.85159251457949	-42.4605032730502	26.66535286581751	45.05860668421408	0	0	0	-11.9305663440542	0	75.92247495300221	45.05860668421408	0	0
2.43	-3.714378014699637	-8.230678388133354	-11.67277795466778	0	0.9399999998497812	0	43.70329875973971	-10.02270497096155	0	59.63987494209118	1.040912183217154	-5.003519240016577	0	0	43.70329875973971	-10.02270497096155	0	59.63987494209118	1.040912183217154	-5.003519240016577	0	0	11.65507293876268	17.75070562417191	-11.71827489754007	114.2009427350394	28.4611189645063	-41.0789794990609	28.85881855773165	45.05778398040164	0	0	0	-11.94308335208841	0	75.91625327938993	45.05778398040164	0	0
2.44	-3.71611976383643	-8.223094283338046	-11.66739971461729	0	0.9399999998497812	0	43.72594593663089	-10.0217460262969	0	59.64607726966663	1.041020434254632	-5.003341217956073	0	0	43.72594593663089	-10.0217460262969	0	59.64607726966663	1.041020434254632	-5.003341217956073	0	0	12.30647993501305	18.07748317841201	-12.02873120608065	108.9704024041578	29.60918154575057	-37.91926351738699	33.24174338728734	45.05570632042636	0	0	0	-11.97542928900589	0	75.90025493214539	45.05570632042636	0	0
2.45	-3.717863498708563	-8.20852081980294	-11.69314135359916	0	0.9399999998497812	0	43.73274285171231	-10.02146382977501	0	59.64794433591941	1.041053020708096	-5.003289100048372	0	0	43.73274285171231	-10.02146382977501	0	59.64794433591941	1.041053020708096	-5.003289100048372	0	0	12.94430861144502	18.39204504935075	-12.26989749622856	104.6626887019445	29.81776052444401	-35.07813238318973	32.76427328753898	45.05509227427543	0	0	0	-11.98520675874814	0	75.89545345991993	45.05509227427543	0	0
2.46	-3.714406881194874	-8.216918180409856	-11.65854861380453	0	0.9399999998497812	0	43.74028365499467	-10.02115198514381	0	59.65001624125744	1.041089182278035	-5.003231571512208	0	0	43.74028365499467	-10.02115198514381	0	59.65001624125744	1.041089182278035	-5.003231571512208	0	0	11.16245501721887	17.25572258341567	-11.52477201800099	103.6152824712441	29.42535066866347	-34.47942847699612	33.81493635796108	45.05441311374193	0	0	0	-11.99607031913562	0	75.89012648661571	45.05441311374193	0	0
2.47	-3.712178666125892	-8.225192314246499	-11.65734190474539	0	0.9399999998497812	0	43.7490955536048	-10.02078880004396	0	59.65242535022617	1.041131229161578	-5.003164720028364	0	0	43.7490955536048	-10.02078880004396	0	59.65242535022617	1.041131229161578	-5.003164720028364	0	0	11.16613120745866	17.25214371510001	-11.54493792250872	95.65961359830663	30.32215023210986	-29.69285506240226	38.95297026682886	45.05362105188996	0	0	0	-12.00875904627779	0	75.8839015872701	45.05362105188996	0	0
